<?xml version="1.0" ?><!DOCTYPE svg  PUBLIC '-//W3C//DTD SVG 1.1//EN'  'http://www.w3.org/Graphics/SVG/1.1/DTD/svg11.dtd'><svg enable-background="new 0 0 91 91" height="91px" id="Layer_1" version="1.1" viewBox="0 0 91 91" width="91px" xml:space="preserve" xmlns="http://www.w3.org/2000/svg" xmlns:xlink="http://www.w3.org/1999/xlink"><g><path d="M77.241,54.553c-10.517-4.527-25.271-0.322-33.224,6.676c-4.722,4.155-9.511,10.255-8.513,16.942   c0.843,5.665,5.441,9.344,10.609,11.025c10.571,3.44,24.73,0.11,32.01-8.457c6.487-7.637,5.208-18.461,5.481-27.819   c0.479-16.226,0.883-32.458,1.019-48.688c0.04-4.634-7.233-4.643-7.202,0C77.502,16.236,77.28,49.774,77.241,54.553z    M58.535,84.207C49.869,85.47,35.872,81.354,43.66,70.26c3.505-4.995,8.846-8.749,14.63-10.568   c5.481-1.722,12.891-2.765,18.895-1.184c-0.064,3.258-0.18,6.512-0.401,9.749C76.135,77.72,67.115,82.952,58.535,84.207z"/><path d="M8.87,65.291c6.454,1.211,13.679,1.824,20.216,1.055c3.72-0.436,3.741-6.339,0-5.872   c-6.65,0.825-13.225,1.886-19.911,2.549C7.988,63.142,7.486,65.03,8.87,65.291z"/><path d="M6.62,47.216c5.954,1.943,13.235,1.406,19.455,1.584c6.479,0.187,13.478,1.054,19.877,0.025   c3.469-0.561,3.54-6.591,0-7.081c-6.443-0.891-33.313-0.333-39.332,1.426C4.583,43.767,4.673,46.58,6.62,47.216z"/><path d="M64.361,22.106c-4.553-0.464-46.839,1.401-56.188,1.878c-3.44,0.178-3.3,4.866,0,5.245   c9.528,1.094,19.258,1.163,28.842,1.167c4.685,0.002,9.367-0.05,14.049-0.157c4.682-0.111,9.699,0.182,14.28-0.855   C69.704,28.398,68.259,22.501,64.361,22.106z"/><path d="M67.626,4.381c-9.774-2.623-41.022,0.085-46.298,0.496C16.344,5.261,10.686,5.04,5.905,6.537   c-0.985,0.31-1.077,1.826,0,2.091c4.636,1.144,50.842,0.261,60.932,1.594C70.208,10.665,70.781,5.229,67.626,4.381z"/></g></svg>